<?xml version="1.0" encoding="UTF-8"?> <svg xmlns="http://www.w3.org/2000/svg" viewBox="0 0 256 49" width="400" height="77"><style> tspan { white-space:pre } .shp0 { fill: #30c7df } .shp1 { fill: #2c2e35 } </style><g><g><g><path fill-rule="evenodd" class="shp0" d="M189.69 2.59C201.92 2.59 211.82 12.5 211.82 24.73C211.82 36.95 201.92 46.86 189.69 46.86C177.47 46.86 167.56 36.95 167.56 24.73C167.56 12.5 177.47 2.59 189.69 2.59ZM209.34 24.73C209.34 15.22 201.64 7.52 192.14 7.52C182.64 7.52 174.94 15.22 174.94 24.73C174.94 34.23 182.64 41.93 192.14 41.93C201.64 41.93 209.34 34.23 209.34 24.73Z"></path><path fill-rule="evenodd" class="shp0" d="M253.6 24.73C253.6 36.95 243.7 46.86 231.47 46.86C219.25 46.86 209.34 36.95 209.34 24.73C209.34 12.5 219.25 2.59 231.47 2.59C243.7 2.59 253.6 12.5 253.6 24.73ZM229.03 41.93C238.53 41.93 246.23 34.23 246.23 24.73C246.23 15.22 238.53 7.52 229.03 7.52C219.53 7.52 211.82 15.22 211.82 24.73C211.82 34.23 219.53 41.93 229.03 41.93Z"></path></g><g><path fill-rule="evenodd" class="shp1" d="M108.84 41.46C114.69 41.46 118.81 39.07 122.27 35.44L126.23 38.98C121.95 43.76 116.75 46.98 108.68 46.98C96.97 46.98 87.41 37.99 87.41 24.73C87.41 12.36 96.07 2.45 107.85 2.47C119.38 2.49 126.36 10.84 127.58 22.07C127.84 24.55 127.03 27.28 123.97 27.28L93.84 27.28C94.75 36.26 101.34 41.46 108.84 41.46ZM119.03 22.17C121.28 22.17 121.32 21.78 120.81 19.45C119.4 12.94 115.02 7.83 107.69 7.83C100.35 7.83 94.75 13.93 93.84 22.17L119.03 22.17Z"></path><path class="shp1" d="M28.83 43.08L45.96 3.15L39.55 3.15L25.1 38.59C24.44 40.12 23.72 40.12 23.12 38.59L8.73 3.18L2.18 3.18L19.24 43.08C20.71 47.39 26.96 47.41 28.83 43.08Z"></path><path class="shp1" d="M134.42 45.99L166.33 45.99L166.33 40.6L139.4 40.6C138.22 40.59 138.17 40.19 139.04 39.2L164.09 9.84C166.18 7.87 166.01 3.12 161.13 3.16L130.21 3.16L130.21 8.54L156.37 8.54C157.05 8.54 157.18 9.09 156.67 9.68L132.04 38.62C128.87 41.76 129.84 45.95 134.42 45.99Z"></path><path fill-rule="evenodd" class="shp1" d="M64.77 41.46C70.62 41.46 74.74 39.07 78.2 35.44L82.16 38.98C77.87 43.76 72.68 46.98 64.61 46.98C52.9 46.98 43.34 37.99 43.34 24.73C43.34 12.36 52 2.45 63.78 2.47C75.31 2.49 82.29 10.84 83.51 22.07C83.77 24.55 82.96 27.28 79.9 27.28L49.77 27.28C50.68 36.26 57.27 41.46 64.77 41.46ZM74.96 22.17C77.21 22.17 77.25 21.78 76.74 19.45C75.33 12.94 70.95 7.83 63.62 7.83C56.28 7.83 50.68 13.93 49.77 22.17L74.96 22.17Z"></path></g></g></g></svg> 